HIERARCHY
ROOT Hips
{
	OFFSET 0.000000 0.000000 0.000000
	CHANNELS 6 Xposition Yposition Zposition Xrotation Yrotation Zrotation
	JOINT LeftUpLeg_virtual
	{
		OFFSET 0.000000 0.000000 0.000000
		CHANNELS 3 Xrotation Yrotation Zrotation
		JOINT LeftUpLeg
		{
			OFFSET 15.427100 -6.655098 0.678600
			CHANNELS 3 Xrotation Yrotation Zrotation
			JOINT LeftLeg
			{
				OFFSET 4.081073 -39.591068 13.024000
				CHANNELS 3 Xrotation Yrotation Zrotation
				JOINT LeftFoot
				{
					OFFSET -4.081074 -37.707932 -15.979700
					CHANNELS 3 Xrotation Yrotation Zrotation
					JOINT LeftToeBase
					{
						OFFSET 5.346399 -15.068900 20.645000
						CHANNELS 3 Xrotation Yrotation Zrotation
						JOINT LeftToe_End
						{
							OFFSET 2.754700 0.931300 11.300900
							CHANNELS 3 Xrotation Yrotation Zrotation
							End Site
							{
								OFFSET 0 0 0
							}
						}
					}
				}
			}
		}
	}
	JOINT RightUpLeg_virtual
	{
		OFFSET 0.000000 0.000000 0.000000
		CHANNELS 3 Xrotation Yrotation Zrotation
		JOINT RightUpLeg
		{
			OFFSET -15.569500 -6.655098 0.678600
			CHANNELS 3 Xrotation Yrotation Zrotation
			JOINT RightLeg
			{
				OFFSET -4.081825 -39.591045 13.023800
				CHANNELS 3 Xrotation Yrotation Zrotation
				JOINT RightFoot
				{
					OFFSET 4.081824 -37.707954 -15.979600
					CHANNELS 3 Xrotation Yrotation Zrotation
					JOINT RightToeBase
					{
						OFFSET -5.346400 -15.068900 20.645000
						CHANNELS 3 Xrotation Yrotation Zrotation
						JOINT RightToe_End
						{
							OFFSET -2.754700 0.931300 11.300900
							CHANNELS 3 Xrotation Yrotation Zrotation
							End Site
							{
								OFFSET 0 0 0
							}
						}
					}
				}
			}
		}
	}
	JOINT Spine_virtual
	{
		OFFSET 0.000000 0.000000 0.000000
		CHANNELS 3 Xrotation Yrotation Zrotation
		JOINT Spine
		{
			OFFSET -0.279200 12.230698 -2.892100
			CHANNELS 3 Xrotation Yrotation Zrotation
			JOINT Spine1
			{
				OFFSET -0.232667 10.192268 -1.242267
				CHANNELS 3 Xrotation Yrotation Zrotation
				JOINT Spine1_split
				{
					OFFSET -0.232667 10.192268 -1.242267
					CHANNELS 3 Xrotation Yrotation Zrotation
					JOINT Spine2
					{
						OFFSET -0.232667 10.192268 -1.242267
						CHANNELS 3 Xrotation Yrotation Zrotation
						JOINT Neck_virtual
						{
							OFFSET 0.000000 0.000000 0.000000
							CHANNELS 3 Xrotation Yrotation Zrotation
							JOINT Neck
							{
								OFFSET -0.418800 17.814194 8.416900
								CHANNELS 3 Xrotation Yrotation Zrotation
								JOINT Head
								{
									OFFSET 0.000000 7.031097 3.806800
									CHANNELS 3 Xrotation Yrotation Zrotation
									JOINT HeadTop_End
									{
										OFFSET 0.000000 24.646606 12.978600
										CHANNELS 3 Xrotation Yrotation Zrotation
										End Site
										{
											OFFSET 0 0 0
										}
									}
								}
							}
						}
						JOINT LeftShoulder_virtual
						{
							OFFSET 0.000000 0.000000 0.000000
							CHANNELS 3 Xrotation Yrotation Zrotation
							JOINT LeftShoulder
							{
								OFFSET 8.476499 7.247704 -3.868750
								CHANNELS 3 Xrotation Yrotation Zrotation
								JOINT LeftShoulder_split
								{
									OFFSET 8.476499 7.247704 -3.868750
									CHANNELS 3 Xrotation Yrotation Zrotation
									JOINT LeftArm
									{
										OFFSET 9.308998 -2.777710 0.208600
										CHANNELS 3 Xrotation Yrotation Zrotation
										JOINT LeftForeArm
										{
											OFFSET 29.972298 0.000000 0.000000
											CHANNELS 3 Xrotation Yrotation Zrotation
											JOINT LeftHand
											{
												OFFSET 26.026505 0.000000 0.000000
												CHANNELS 3 Xrotation Yrotation Zrotation
												End Site
												{
													OFFSET 0 0 0
												}
											}
										}
									}
								}
							}
						}
						JOINT RightShoulder_virtual
						{
							OFFSET 0.000000 0.000000 0.000000
							CHANNELS 3 Xrotation Yrotation Zrotation
							JOINT RightShoulder
							{
								OFFSET -7.570500 7.247704 -3.868750
								CHANNELS 3 Xrotation Yrotation Zrotation
								JOINT RightShoulder_split
								{
									OFFSET -7.570500 7.247704 -3.868750
									CHANNELS 3 Xrotation Yrotation Zrotation
									JOINT RightArm
									{
										OFFSET -9.308998 -2.777710 0.208500
										CHANNELS 3 Xrotation Yrotation Zrotation
										JOINT RightForeArm
										{
											OFFSET -29.972300 0.000000 0.000000
											CHANNELS 3 Xrotation Yrotation Zrotation
											JOINT RightHand
											{
												OFFSET -26.026505 0.000000 0.000000
												CHANNELS 3 Xrotation Yrotation Zrotation
												End Site
												{
													OFFSET 0 0 0
												}
											}
										}
									}
								}
							}
						}
					}
				}
			}
		}
	}
}
MOTION
Frames: 4
Frame Time: 0.03333333
-3.125624 85.373291 52.374367 0.000000 0.000000 0.000000 27.225894 4.753750 -14.563816 -61.064432 -3.790463 17.177478 38.235853 3.445313 -11.686184 6.953459 -0.759141 10.568795 -1.280089 -0.162575 -0.516040 0.000000 0.000000 0.000000 27.888996 9.663226 -16.208205 -14.037690 -20.585690 -26.489311 78.143491 2.420956 -4.026875 31.529096 -0.322050 13.701362 14.132055 0.877954 -0.267672 0.000000 0.000000 0.000000 26.707856 9.060886 -16.583650 6.603009 12.707093 -10.191470 12.569041 11.696410 -7.338623 1.492124 2.070906 0.206736 0.000000 0.000000 0.000000 12.028453 11.065861 -7.637923 -10.397565 -7.570657 7.584722 -25.647524 -31.692047 19.508817 0.000000 0.000000 0.000000 11.609841 11.724149 -7.611145 0.103934 4.408168 4.199905 -3.493677 0.183179 -0.641023 32.812352 -41.243462 -14.700234 0.556827 -29.928465 -0.486614 0.000000 0.000000 0.000000 11.892038 11.154940 -7.978459 5.374248 14.273466 -6.490598 0.092741 5.172276 -0.764651 -17.735764 57.193958 33.597902 -1.906693 40.875168 -0.141817 0.000000 0.000000 0.000000 
-3.259785 85.194778 52.766666 0.000000 0.000000 0.000000 25.506435 5.467470 -13.929835 -59.961179 -2.337994 17.360971 38.831231 3.585291 -11.983866 4.919629 -0.368006 11.079246 -1.242465 -0.210675 -0.130008 0.000000 0.000000 0.000000 26.009073 9.561283 -15.347281 -14.713312 -21.345272 -24.009954 74.435402 3.282090 -3.145517 27.500568 -1.236341 10.433069 15.787827 0.853614 0.249753 0.000000 0.000000 0.000000 24.411238 9.398306 -15.866091 6.506677 11.642555 -10.693219 12.948288 10.810125 -7.467132 1.189949 2.317871 0.163912 0.000000 0.000000 0.000000 12.283743 10.306743 -7.775965 -10.587171 -7.277182 7.174800 -25.705332 -31.313730 20.111705 0.000000 0.000000 0.000000 11.678362 11.007538 -7.696846 0.181552 4.104788 5.101768 -3.553932 -1.055349 -1.342025 31.076473 -43.503947 -7.265165 0.678374 -27.921100 -0.321268 0.000000 0.000000 0.000000 12.058200 10.418510 -8.000971 5.091409 13.651345 -5.493983 0.686482 4.078780 -0.498698 -16.935461 53.322030 27.148166 -1.875428 39.493557 0.109331 0.000000 0.000000 0.000000 
-3.220404 85.190392 53.145081 0.000000 0.000000 0.000000 24.084581 6.233478 -13.553923 -58.735003 -0.827150 17.324286 39.266016 3.441063 -12.108634 3.116489 -0.196966 11.432675 -1.311232 -0.226329 0.190889 0.000000 0.000000 0.000000 24.175789 9.763600 -14.769652 -14.517214 -21.729921 -21.328606 69.503862 4.183391 -2.450978 23.520760 -1.862440 5.306152 15.978259 1.021944 2.026351 0.000000 0.000000 0.000000 22.339976 9.703616 -15.372287 6.346090 10.542787 -11.073880 13.311241 9.623138 -7.582278 1.059341 2.223550 0.120154 0.000000 0.000000 0.000000 12.585346 9.275249 -7.914500 -10.806456 -7.094115 6.792182 -25.374254 -30.717321 20.842416 0.000000 0.000000 0.000000 11.860625 9.978565 -7.768820 0.258985 3.688770 5.890114 -3.443623 -2.033832 -1.990578 27.689023 -46.523181 -1.417511 0.731013 -25.247258 -0.063132 0.000000 0.000000 0.000000 12.383459 9.408218 -8.050536 4.991144 13.210596 -5.566646 1.061691 2.962272 -0.412140 -16.736190 50.102084 22.026491 -1.811069 37.012553 0.339741 0.000000 0.000000 0.000000 
-3.016558 85.352409 53.523491 0.000000 0.000000 0.000000 22.742812 6.977615 -13.416937 -57.320423 0.570182 17.261304 39.637196 2.933789 -12.043434 1.868635 -0.206104 11.521924 -1.537514 -0.210836 0.391210 0.000000 0.000000 0.000000 22.401188 10.116457 -14.477165 -14.321671 -21.516414 -19.266630 64.012895 5.745885 -2.287909 22.104236 -1.267000 1.231172 10.344003 0.936038 4.880346 0.000000 0.000000 0.000000 20.524537 9.990341 -15.147553 6.142555 9.253487 -11.344448 13.690371 8.056160 -7.612238 1.056812 1.974928 0.022396 0.000000 0.000000 0.000000 12.929404 7.851574 -7.955833 -10.927458 -6.956392 6.482819 -24.576501 -29.640180 21.708472 0.000000 0.000000 0.000000 12.198453 8.528877 -7.781139 0.330008 3.149282 6.511470 -3.382330 -2.429120 -2.412422 22.193784 -49.894580 2.163257 0.661766 -22.006931 0.236833 0.000000 0.000000 0.000000 12.838060 8.001011 -8.041461 5.048894 12.894817 -6.698151 1.234004 2.126477 -0.543581 -16.500562 47.543471 17.529479 -1.688523 34.490826 0.468059 0.000000 0.000000 0.000000 
